<svg xmlns="http://www.w3.org/2000/svg" data-name="Layer 1" viewBox="0 0 100 100" x="0px" y="0px"><title>cooking-and-kitchen</title><path d="M87,40.5a12.63,12.63,0,0,0-17.86,0l-1.28,1.27V33.26a29.26,29.26,0,1,0-58.52,0V95a1,1,0,0,0,1,1H66.85a1,1,0,0,0,1-1V77.48L76,69.31a1,1,0,0,0-1.41-1.41l-8.46,8.46a1,1,0,0,0-.29.71v7.75H11.33V33.26a27.26,27.26,0,0,1,54.52,0V44.18a1,1,0,0,0,1.71.71l3-3a10.63,10.63,0,0,1,15,15l-2.8,2.8a1,1,0,0,0,1.41,1.41l2.8-2.8A12.64,12.64,0,0,0,87,40.5ZM11.33,94V91.32H65.85V94H11.33Zm54.52-7.18v2.5H11.33v-2.5H65.85ZM82.22,61.7a1,1,0,0,1,0,1.41L78,67.35a1,1,0,0,1-1.41-1.41L80.8,61.7A1,1,0,0,1,82.22,61.7Z"></path></svg>